# Blender 4.3.0
# www.blender.org
o Cube
v 0.500000 0.200000 -1.500000
v 0.500000 -0.200000 -1.500000
v 0.500000 0.200000 1.500000
v 0.500000 -0.200000 1.500000
v -0.500000 0.200000 -1.500000
v -0.500000 -0.200000 -1.500000
v -0.500000 0.200000 1.500000
v -0.500000 -0.200000 1.500000
vn -0.0000 1.0000 -0.0000
vn -0.0000 -0.0000 1.0000
vn -1.0000 -0.0000 -0.0000
vn -0.0000 -1.0000 -0.0000
vn 1.0000 -0.0000 -0.0000
vn -0.0000 -0.0000 -1.0000
vt -1.000000 1.000000
vt -1.000000 0.000000
vt 2.000000 0.000000
vt 2.000000 1.000000
vt 0.667812 1.000000
vt 0.332188 1.000000
vt 0.332188 -0.000000
vt 0.667812 0.000000
vt 0.000000 0.335960
vt 0.000000 0.000000
vt 1.000000 0.000000
vt 1.000000 0.335960
s 0
f 1/1/1 5/2/1 7/3/1 3/4/1
f 4/5/2 3/6/2 7/7/2 8/8/2
f 8/9/3 7/10/3 5/11/3 6/12/3
f 6/1/4 2/2/4 4/3/4 8/4/4
f 2/9/5 1/10/5 3/11/5 4/12/5
f 6/5/6 5/6/6 1/7/6 2/8/6
